<?xml version="1.0" encoding="iso-8859-1"?>
<!-- Generator: Adobe Illustrator 19.0.0, SVG Export Plug-In . SVG Version: 6.00 Build 0)  -->
<svg version="1.1" id="Layer_1" xmlns="http://www.w3.org/2000/svg" xmlns:xlink="http://www.w3.org/1999/xlink" x="0px" y="0px"
	 viewBox="0 0 512 512" style="enable-background:new 0 0 512 512;" xml:space="preserve">
<g>
	<g>
		<path d="M217.043,0.001H16.696C7.515,0.001,0,7.479,0,16.697v200.348c0,9.214,7.482,16.693,16.696,16.693h200.348
			c9.214,0,16.696-7.481,16.696-16.693V16.697C233.739,7.479,226.224,0.001,217.043,0.001z"/>
	</g>
</g>
<g>
	<g>
		<path d="M495.304,0.001H294.957c-9.18,0-16.696,7.477-16.696,16.696v200.348c0,9.214,7.482,16.693,16.696,16.693h200.348
			c9.214,0,16.696-7.481,16.696-16.693V16.697C512,7.479,504.485,0.001,495.304,0.001z"/>
	</g>
</g>
<g>
	<g>
		<path d="M217.043,278.262H16.696C7.515,278.262,0,285.739,0,294.958v200.348c0,9.214,7.482,16.693,16.696,16.693h200.348
			c9.214,0,16.696-7.481,16.696-16.693V294.958C233.739,285.739,226.224,278.262,217.043,278.262z"/>
	</g>
</g>
<g>
	<g>
		<path d="M495.304,278.262H294.957c-9.18,0-16.696,7.477-16.696,16.696v200.348c0,9.214,7.482,16.693,16.696,16.693h200.348
			c9.214,0,16.696-7.481,16.696-16.693V294.958C512,285.739,504.485,278.262,495.304,278.262z"/>
	</g>
</g>
<g>
</g>
<g>
</g>
<g>
</g>
<g>
</g>
<g>
</g>
<g>
</g>
<g>
</g>
<g>
</g>
<g>
</g>
<g>
</g>
<g>
</g>
<g>
</g>
<g>
</g>
<g>
</g>
<g>
</g>
</svg>
